<?xml version="1.0" encoding="utf-8"?>
<!-- Generator: Adobe Illustrator 24.3.0, SVG Export Plug-In . SVG Version: 6.00 Build 0)  -->
<svg version="1.1" xmlns="http://www.w3.org/2000/svg" xmlns:xlink="http://www.w3.org/1999/xlink" x="0px" y="0px"
	 viewBox="0 0 1920 1080" style="enable-background:new 0 0 1920 1080;" xml:space="preserve">
<style type="text/css">
	.st0{fill:#FFFFFF;}
</style>
<g id="Слой_1">
</g>
<g id="Слой_3">
</g>
<g id="Слой_2">
</g>
<g id="Слой_4">
	<g>
		<g>
			<g>
				<rect x="464" y="296" width="400" height="400" fill="#073145" />
			</g>
			<g >
				<path d="M799.22,469.36h64.8v227.2h140.4v52.8h-205.2V469.36z" fill="#073145" />
			</g>
			<g>
				<path class="st0" d="M646.89,667.16l22-48.8c23.6,17.2,58.8,29.2,92.4,29.2c38.4,0,54-12.8,54-30c0-52.4-162.8-16.4-162.8-120.4
					c0-47.6,38.4-87.2,118-87.2c35.2,0,71.2,8.4,97.2,24.8l-20,49.2c-26-14.8-52.8-22-77.6-22c-38.4,0-53.2,14.4-53.2,32
					c0,51.6,162.8,16,162.8,118.8c0,46.8-38.8,86.8-118.8,86.8C716.49,699.56,671.69,686.36,646.89,667.16z"/>
			</g>
		</g>
		<g>
			<path d="M931.2,647.84l3.96-8.79c4.25,3.1,10.58,5.26,16.63,5.26c6.91,0,9.72-2.3,9.72-5.4c0-9.43-29.31-2.95-29.31-21.67
				c0-8.57,6.91-15.7,21.24-15.7c6.34,0,12.82,1.51,17.5,4.46l-3.6,8.86c-4.68-2.66-9.5-3.96-13.97-3.96
				c-6.91,0-9.58,2.59-9.58,5.76c0,9.29,29.31,2.88,29.31,21.39c0,8.42-6.98,15.62-21.39,15.62
				C943.73,653.67,935.66,651.29,931.2,647.84z"/>
			<path d="M981.09,602.4h11.67v50.4h-11.67V602.4z"/>
			<path d="M1050.94,602.4v50.4h-9.58l-25.13-30.6v30.6h-11.52v-50.4h9.65l25.06,30.6v-30.6H1050.94z"/>
			<path d="M1096.94,626.81h10.66v20.45c-5.54,4.18-13.18,6.41-20.38,6.41c-15.84,0-27.51-10.87-27.51-26.07
				s11.67-26.07,27.72-26.07c8.86,0,16.2,3.02,21.1,8.71l-7.49,6.91c-3.67-3.89-7.92-5.69-13.03-5.69
				c-9.79,0-16.49,6.55-16.49,16.13c0,9.43,6.7,16.13,16.35,16.13c3.17,0,6.12-0.58,9.07-2.16V626.81z"/>
			<path d="M1117.97,630.63V602.4h11.67v27.79c0,9.58,4.18,13.54,11.23,13.54c7.13,0,11.23-3.96,11.23-13.54V602.4h11.52v28.23
				c0,14.83-8.5,23.04-22.83,23.04S1117.97,645.46,1117.97,630.63z"/>
			<path d="M1175.13,602.4h11.67v40.9h25.27v9.5h-36.94V602.4z"/>
			<path d="M1252.25,642.01h-23.4l-4.46,10.8h-11.95l22.47-50.4h11.52l22.54,50.4h-12.24L1252.25,642.01z M1248.58,633.15
				l-7.99-19.3l-7.99,19.3H1248.58z"/>
			<path d="M1306.32,652.81l-9.72-14.04h-0.58h-10.15v14.04h-11.67v-50.4h21.82c13.47,0,21.89,6.98,21.89,18.29
				c0,7.56-3.82,13.1-10.37,15.91l11.3,16.2H1306.32z M1295.37,611.91h-9.5v17.57h9.5c7.13,0,10.73-3.31,10.73-8.78
				C1306.1,615.15,1302.5,611.91,1295.37,611.91z"/>
			<path d="M1327.12,602.4h11.67v50.4h-11.67V602.4z"/>
			<path d="M1361.18,611.91h-16.13v-9.5h43.92v9.5h-16.13v40.9h-11.67V611.91z"/>
			<path d="M1418.49,634.95v17.86h-11.67v-18l-19.51-32.4h12.38l13.46,22.39l13.47-22.39h11.45L1418.49,634.95z"/>
			<path d="M1463.35,602.4h11.67v40.9h25.27v9.5h-36.94V602.4z"/>
			<path d="M1540.46,642.01h-23.4l-4.46,10.8h-11.95l22.47-50.4h11.52l22.54,50.4h-12.24L1540.46,642.01z M1536.79,633.15
				l-7.99-19.3l-7.99,19.3H1536.79z"/>
			<path d="M1608.64,639.05c0,8.71-6.91,13.75-20.16,13.75h-26.07v-50.4h24.63c12.6,0,19.08,5.26,19.08,13.1
				c0,5.04-2.59,8.93-6.7,11.09C1605.04,628.4,1608.64,632.72,1608.64,639.05z M1574.01,611.19v11.88h11.59
				c5.69,0,8.79-2.02,8.79-5.98s-3.1-5.91-8.79-5.91H1574.01z M1596.91,637.83c0-4.25-3.24-6.26-9.29-6.26h-13.61v12.46h13.61
				C1593.67,644.02,1596.91,642.15,1596.91,637.83z"/>
		</g>
	</g>
</g>
</svg>
